<svg width="22" height="22" viewBox="0 0 22 22" fill="none" xmlns="http://www.w3.org/2000/svg">
<g clip-path="url(#clip0)" filter="url(#filter0_d)">
<path d="M15.6666 13.3583C15.6083 13.3583 15.5499 13.3583 15.4916 13.3583C13.6249 13.125 11.7583 12.4833 10.1833 11.4917C8.72494 10.5583 7.4416 9.275 6.50827 7.81667C5.45827 6.24167 4.8166 4.375 4.6416 2.50833C4.6416 2.04167 4.75827 1.575 5.04993 1.225C5.3416 0.875 5.74993 0.641667 6.2166 0.583333C6.27493 0.583333 6.33327 0.583333 6.3916 0.583333H8.1416C9.0166 0.583333 9.77494 1.225 9.8916 2.1C9.94994 2.625 10.0666 3.15 10.2416 3.61667C10.4749 4.25833 10.2999 4.95833 9.83327 5.48333L9.42494 5.89167C10.1249 6.94167 10.9999 7.875 12.1083 8.575L12.5166 8.16667C12.9833 7.7 13.7416 7.525 14.3833 7.75833C14.8499 7.93333 15.3749 8.05 15.8999 8.10833C16.7749 8.225 17.4166 8.98333 17.4166 9.85833V11.6083C17.4166 12.075 17.2416 12.5417 16.8916 12.8333C16.5416 13.125 16.1333 13.3583 15.6666 13.3583ZM8.1416 1.75H6.3916C6.2166 1.75 6.0416 1.86667 5.92493 1.98333C5.8666 2.1 5.80827 2.21667 5.80827 2.39167C5.98327 4.08333 6.5666 5.71667 7.49994 7.175C8.37494 8.51667 9.48327 9.68333 10.8249 10.5C12.2833 11.4333 13.9166 12.0167 15.6083 12.1917C15.8416 12.1917 15.9583 12.1333 16.0749 12.0167C16.1916 11.9 16.2499 11.7833 16.2499 11.6083V9.85833C16.2499 9.56667 16.0166 9.33333 15.7249 9.275C15.1416 9.21667 14.5583 9.04167 13.9749 8.80833C13.7416 8.75 13.5083 8.75 13.3333 8.925L12.5749 9.68333C12.3999 9.85833 12.1083 9.91667 11.8749 9.8C10.2999 8.925 9.0166 7.64167 8.1416 6.06667C8.08327 5.83333 8.1416 5.54167 8.3166 5.36667L9.07494 4.60833C9.1916 4.49167 9.24994 4.2 9.1916 4.025C8.95827 3.44167 8.8416 2.85833 8.72494 2.275C8.72494 1.98333 8.43327 1.75 8.1416 1.75ZM15.0833 5.83333C14.7916 5.83333 14.5583 5.65833 14.4999 5.36667C14.3249 4.43333 13.5666 3.73333 12.6333 3.5C12.3416 3.44167 12.1083 3.15 12.1666 2.8C12.2249 2.50833 12.5166 2.275 12.8666 2.33333C14.2666 2.625 15.3749 3.675 15.6083 5.075C15.6666 5.36667 15.4916 5.71667 15.1416 5.775C15.1416 5.775 15.1416 5.83333 15.0833 5.83333ZM17.4166 5.775C17.1249 5.775 16.8916 5.54167 16.8333 5.25C16.5999 3.09167 14.9083 1.4 12.6916 1.10833C12.3999 1.05 12.1666 0.758333 12.1666 0.466667C12.1666 0.175 12.5166 -0.0583333 12.8083 -0.0583333C15.5499 0.233333 17.6499 2.33333 17.9416 5.075C17.9999 5.36667 17.7666 5.65833 17.4166 5.71667C17.4749 5.775 17.4166 5.775 17.4166 5.775Z" fill="white"/>
</g>
<defs>
<filter id="filter0_d" x="0" y="0" width="22" height="22" filterUnits="userSpaceOnUse" color-interpolation-filters="sRGB">
<feFlood flood-opacity="0" result="BackgroundImageFix"/>
<feColorMatrix in="SourceAlpha" type="matrix" values="0 0 0 0 0 0 0 0 0 0 0 0 0 0 0 0 0 0 127 0"/>
<feOffset dy="4"/>
<feGaussianBlur stdDeviation="2"/>
<feColorMatrix type="matrix" values="0 0 0 0 0 0 0 0 0 0 0 0 0 0 0 0 0 0 0.25 0"/>
<feBlend mode="normal" in2="BackgroundImageFix" result="effect1_dropShadow"/>
<feBlend mode="normal" in="SourceGraphic" in2="effect1_dropShadow" result="shape"/>
</filter>
<clipPath id="clip0">
<rect width="14" height="14" fill="white" transform="translate(4)"/>
</clipPath>
</defs>
</svg>
